<svg width="25" height="23" viewBox="0 0 25 23" fill="none" xmlns="http://www.w3.org/2000/svg">
<path d="M19.0526 3.67883L18.0513 3.68656L18.0372 1.86647L16.0347 1.88194L16.0487 3.70203L8.03842 3.7639L8.02436 1.94381L6.02178 1.95928L6.03584 3.77937L5.03456 3.78711C3.92313 3.79569 3.04832 4.62154 3.05605 5.62259L3.14445 18.3633C3.15218 19.3644 4.04966 20.1765 5.16108 20.1679L19.1791 20.0596C20.2805 20.0511 21.1754 19.2251 21.1676 18.2241L21.0692 5.48345C21.0615 4.4824 20.154 3.67032 19.0526 3.67883ZM19.1651 18.2396L5.14703 18.3478L5.07673 9.24738L19.0948 9.1391L19.1651 18.2396ZM9.11 12.8566L7.10742 12.8721L7.09337 11.052L9.09594 11.0365L9.11 12.8566ZM13.1152 12.8257L11.1126 12.8412L11.0985 11.0211L13.1011 11.0056L13.1152 12.8257ZM17.1203 12.7948L15.1177 12.8102L15.1037 10.9901L17.1062 10.9747L17.1203 12.7948ZM9.13812 16.4968L7.13554 16.5123L7.12148 14.6922L9.12406 14.6767L9.13812 16.4968ZM13.1433 16.4659L11.1407 16.4813L11.1266 14.6612L13.1292 14.6458L13.1433 16.4659ZM17.1484 16.4349L15.1458 16.4504L15.1318 14.6303L17.1344 14.6148L17.1484 16.4349Z" fill="black"/>
</svg>
