<?xml version="1.0" encoding="UTF-8" standalone="no"?>
<!-- Created with Inkscape (http://www.inkscape.org/) -->

<svg
   width="3.7040858mm"
   height="2.1166184mm"
   viewBox="0 0 3.7040858 2.1166184"
   version="1.1"
   id="svg1"
   xml:space="preserve"
   xmlns="http://www.w3.org/2000/svg"
   xmlns:svg="http://www.w3.org/2000/svg"><defs
     id="defs1" /><g
     id="layer1"
     transform="translate(-56.141015,-85.605459)"><g
       style="fill:none;stroke:currentColor;stroke-width:2;stroke-linecap:round;stroke-linejoin:round"
       id="g1"
       transform="matrix(0.26458333,0,0,0.26458333,54.81806,83.488792)"><path
         style="color:#000000;fill:#000000;stroke:none;stroke-linecap:butt;stroke-linejoin:miter;-inkscape-stroke:none"
         d="m 6,8 a 1,1 0 0 0 -0.7070313,0.2929688 1,1 0 0 0 0,1.4140625 l 6.0000003,5.9999997 a 1.0001,1.0001 0 0 0 1.414062,0 l 6,-5.9999997 a 1,1 0 0 0 0,-1.4140625 1,1 0 0 0 -1.414062,0 L 12,13.585938 6.7070312,8.2929688 A 1,1 0 0 0 6,8 Z"
         id="polyline1" /></g></g></svg>
