<?xml version="1.0" encoding="UTF-8" standalone="no"?>
<!-- Created with Inkscape (http://www.inkscape.org/) -->

<svg
   width="2.1165779mm"
   height="3.7041264mm"
   viewBox="0 0 2.1165779 3.7041264"
   version="1.1"
   id="svg1"
   xml:space="preserve"
   xmlns="http://www.w3.org/2000/svg"
   xmlns:svg="http://www.w3.org/2000/svg"><defs
     id="defs1" /><g
     id="layer1"
     transform="translate(-40.886506,-85.603139)"><g
       style="fill:none;stroke:currentColor;stroke-width:2;stroke-linecap:round;stroke-linejoin:round"
       id="g7"
       transform="matrix(0.26458333,0,0,0.26458333,38.7698,84.280221)"><path
         style="color:#000000;fill:#000000;stroke:none;stroke-linecap:butt;stroke-linejoin:miter;-inkscape-stroke:none"
         d="m 9,5 a 1,1 0 0 0 -0.7070312,0.2929687 1,1 0 0 0 0,1.4140625 L 13.585938,12 8.2929688,17.292969 a 1,1 0 0 0 0,1.414062 1,1 0 0 0 1.4140625,0 l 5.9999997,-6 a 1.0001,1.0001 0 0 0 0,-1.414062 L 9.7070313,5.2929687 A 1,1 0 0 0 9,5 Z"
         id="polyline1-1" /></g></g></svg>
