<svg width="40" height="40" viewBox="0 0 40 40" fill="none" xmlns="http://www.w3.org/2000/svg">
<path d="M4.44444 17.7778C3.22222 17.7778 2.17556 17.3422 1.30444 16.4711C0.434815 15.6015 0 14.5556 0 13.3333V4.44444C0 3.22222 0.434815 2.17556 1.30444 1.30444C2.17556 0.434815 3.22222 0 4.44444 0H13.3333C14.5556 0 15.6022 0.434815 16.4733 1.30444C17.343 2.17556 17.7778 3.22222 17.7778 4.44444V13.3333C17.7778 14.5556 17.343 15.6015 16.4733 16.4711C15.6022 17.3422 14.5556 17.7778 13.3333 17.7778H4.44444ZM4.44444 40C3.22222 40 2.17556 39.5652 1.30444 38.6956C0.434815 37.8244 0 36.7778 0 35.5556V26.6667C0 25.4444 0.434815 24.3978 1.30444 23.5267C2.17556 22.657 3.22222 22.2222 4.44444 22.2222H13.3333C14.5556 22.2222 15.6022 22.657 16.4733 23.5267C17.343 24.3978 17.7778 25.4444 17.7778 26.6667V35.5556C17.7778 36.7778 17.343 37.8244 16.4733 38.6956C15.6022 39.5652 14.5556 40 13.3333 40H4.44444ZM26.6667 17.7778C25.4444 17.7778 24.3985 17.3422 23.5289 16.4711C22.6578 15.6015 22.2222 14.5556 22.2222 13.3333V4.44444C22.2222 3.22222 22.6578 2.17556 23.5289 1.30444C24.3985 0.434815 25.4444 0 26.6667 0H35.5556C36.7778 0 37.8244 0.434815 38.6956 1.30444C39.5652 2.17556 40 3.22222 40 4.44444V13.3333C40 14.5556 39.5652 15.6015 38.6956 16.4711C37.8244 17.3422 36.7778 17.7778 35.5556 17.7778H26.6667ZM26.6667 40C25.4444 40 24.3985 39.5652 23.5289 38.6956C22.6578 37.8244 22.2222 36.7778 22.2222 35.5556V26.6667C22.2222 25.4444 22.6578 24.3978 23.5289 23.5267C24.3985 22.657 25.4444 22.2222 26.6667 22.2222H35.5556C36.7778 22.2222 37.8244 22.657 38.6956 23.5267C39.5652 24.3978 40 25.4444 40 26.6667V35.5556C40 36.7778 39.5652 37.8244 38.6956 38.6956C37.8244 39.5652 36.7778 40 35.5556 40H26.6667Z" fill="black"/>
</svg>
