<?xml version="1.0" encoding="UTF-8" standalone="no"?>
<!-- Created with Inkscape (http://www.inkscape.org/) -->

<svg
   width="5.291626mm"
   height="5.2916183mm"
   viewBox="0 0 5.291626 5.2916183"
   version="1.1"
   id="svg1"
   xml:space="preserve"
   xmlns="http://www.w3.org/2000/svg"
   xmlns:svg="http://www.w3.org/2000/svg"><defs
     id="defs1" /><g
     id="layer1"
     transform="translate(-90.552447,-154.5964)"><g
       style="fill:none;stroke:currentColor;stroke-width:2;stroke-linecap:round;stroke-linejoin:round"
       id="g3"
       transform="matrix(0.26458333,0,0,0.26458333,90.023274,154.06722)"><path
         style="color:#000000;fill:#000000;stroke:none;stroke-linecap:butt;stroke-linejoin:miter;-inkscape-stroke:none"
         d="m 11,2 c -4.9587132,0 -9,4.0412868 -9,9 0,4.958713 4.0412868,9 9,9 4.958713,0 9,-4.041287 9,-9 0,-4.9587132 -4.041287,-9 -9,-9 z m 0,2 c 3.877834,0 7,3.122166 7,7 0,3.877834 -3.122166,7 -7,7 C 7.122166,18 4,14.877834 4,11 4,7.122166 7.122166,4 11,4 Z"
         id="circle1-4" /><path
         style="color:#000000;fill:#000000;stroke:none;stroke-linecap:butt;stroke-linejoin:miter;-inkscape-stroke:none"
         d="m 15.943359,15.943359 a 1,1 0 0 0 0,1.414063 l 4.34961,4.349609 a 1,1 0 0 0 1.414062,0 1,1 0 0 0 0,-1.414062 l -4.349609,-4.34961 a 1,1 0 0 0 -1.414063,0 z"
         id="line1" /></g></g></svg>
