<?xml version="1.0" encoding="UTF-8" standalone="no"?>
<!-- Created with Inkscape (http://www.inkscape.org/) -->

<svg
   width="5.2916665mm"
   height="5.8208337mm"
   viewBox="0 0 5.2916665 5.8208337"
   version="1.1"
   id="svg1"
   xml:space="preserve"
   xmlns="http://www.w3.org/2000/svg"
   xmlns:svg="http://www.w3.org/2000/svg"><defs
     id="defs1" /><g
     id="layer1"
     transform="translate(-49.606881,-85.711744)"><g
       style="fill:none;stroke:currentColor;stroke-width:2;stroke-linecap:round;stroke-linejoin:round"
       id="g5"
       transform="matrix(0.26458333,0,0,0.26458333,49.077712,85.447155)"><path
         style="color:#000000;fill:#000000;stroke:none;stroke-linecap:butt;stroke-linejoin:miter;-inkscape-stroke:none"
         d="m 18,1 c -2.197292,0 -4,1.8027078 -4,4 0,2.1972922 1.802708,4 4,4 2.197292,0 4,-1.8027078 4,-4 0,-2.1972922 -1.802708,-4 -4,-4 z m 0,2 c 1.116413,0 2,0.883587 2,2 0,1.116413 -0.883587,2 -2,2 -1.116413,0 -2,-0.883587 -2,-2 0,-1.116413 0.883587,-2 2,-2 z"
         id="circle1" /><path
         style="color:#000000;fill:#000000;stroke:none;stroke-linecap:butt;stroke-linejoin:miter;-inkscape-stroke:none"
         d="m 6,8 c -2.1972922,0 -4,1.8027078 -4,4 0,2.197292 1.8027078,4 4,4 2.1972922,0 4,-1.802708 4,-4 C 10,9.8027078 8.1972922,8 6,8 Z m 0,2 c 1.116413,0 2,0.883587 2,2 0,1.116413 -0.883587,2 -2,2 -1.116413,0 -2,-0.883587 -2,-2 0,-1.116413 0.883587,-2 2,-2 z"
         id="circle2" /><path
         style="color:#000000;fill:#000000;stroke:none;stroke-linecap:butt;stroke-linejoin:miter;-inkscape-stroke:none"
         d="m 18,15 c -2.197292,0 -4,1.802708 -4,4 0,2.197292 1.802708,4 4,4 2.197292,0 4,-1.802708 4,-4 0,-2.197292 -1.802708,-4 -4,-4 z m 0,2 c 1.116413,0 2,0.883587 2,2 0,1.116413 -0.883587,2 -2,2 -1.116413,0 -2,-0.883587 -2,-2 0,-1.116413 0.883587,-2 2,-2 z"
         id="circle3" /><path
         style="color:#000000;fill:#000000;stroke:none;stroke-linecap:butt;stroke-linejoin:miter;-inkscape-stroke:none"
         d="m 9.09375,12.646484 a 1,1 0 0 0 -1.3671875,0.359375 1,1 0 0 0 0.359375,1.367188 l 6.8300785,3.980469 a 1,1 0 0 0 1.367187,-0.359375 1,1 0 0 0 -0.359375,-1.367188 z"
         id="line3" /><path
         style="color:#000000;fill:#000000;stroke:none;stroke-linecap:butt;stroke-linejoin:miter;-inkscape-stroke:none"
         d="M 15.664063,5.5429687 A 1,1 0 0 0 14.90625,5.6464844 L 8.0859375,9.6269531 A 1,1 0 0 0 7.7265625,10.994141 1,1 0 0 0 9.09375,11.353516 L 15.914063,7.3730469 A 1,1 0 0 0 16.273437,6.0058594 1,1 0 0 0 15.664063,5.5429687 Z"
         id="line4" /></g></g></svg>
