<?xml version="1.0" encoding="UTF-8" standalone="no"?>
<!-- Created with Inkscape (http://www.inkscape.org/) -->

<svg
   width="5.2916665mm"
   height="5.8208337mm"
   viewBox="0 0 5.2916665 5.8208337"
   version="1.1"
   id="svg1"
   xml:space="preserve"
   xmlns="http://www.w3.org/2000/svg"
   xmlns:svg="http://www.w3.org/2000/svg"><defs
     id="defs1" /><g
     id="layer1"
     transform="translate(-95.515185,-160.69128)"><g
       style="fill:none;stroke:currentColor;stroke-width:2;stroke-linecap:round;stroke-linejoin:round"
       id="g1"
       transform="matrix(0.26458333,0,0,0.26458333,94.986014,160.42669)"><path
         style="color:#000000;fill:#000000;stroke:none;stroke-linecap:butt;stroke-linejoin:miter;-inkscape-stroke:none"
         d="M 3,5 A 1,1 0 0 0 2,6 1,1 0 0 0 3,7 H 5 21 A 1,1 0 0 0 22,6 1,1 0 0 0 21,5 H 5 Z"
         id="polyline1" /><path
         style="color:#000000;fill:#000000;stroke:none;stroke-linecap:butt;stroke-linejoin:miter;-inkscape-stroke:none"
         d="M 10,1 C 8.354992,1 7,2.354992 7,4 V 6 A 1,1 0 0 0 8,7 1,1 0 0 0 9,6 V 4 C 9,3.4358712 9.4358712,3 10,3 h 4 c 0.564129,0 1,0.4358712 1,1 v 2 a 1,1 0 0 0 1,1 1,1 0 0 0 1,-1 V 4 C 17,2.354992 15.645008,1 14,1 Z M 5,5 A 1,1 0 0 0 4,6 v 14 c 0,1.645008 1.354992,3 3,3 h 10 c 1.645008,0 3,-1.354992 3,-3 V 6 A 1,1 0 0 0 19,5 1,1 0 0 0 18,6 v 14 c 0,0.564129 -0.435871,1 -1,1 H 7 C 6.4358712,21 6,20.564129 6,20 V 6 A 1,1 0 0 0 5,5 Z"
         id="path1" /><path
         style="color:#000000;fill:#000000;stroke:none;stroke-linecap:butt;stroke-linejoin:miter;-inkscape-stroke:none"
         d="m 10,10 a 1,1 0 0 0 -1,1 v 6 a 1,1 0 0 0 1,1 1,1 0 0 0 1,-1 v -6 a 1,1 0 0 0 -1,-1 z"
         id="line1" /><path
         style="color:#000000;fill:#000000;stroke:none;stroke-linecap:butt;stroke-linejoin:miter;-inkscape-stroke:none"
         d="m 14,10 a 1,1 0 0 0 -1,1 v 6 a 1,1 0 0 0 1,1 1,1 0 0 0 1,-1 v -6 a 1,1 0 0 0 -1,-1 z"
         id="line2" /></g></g></svg>
