<?xml version="1.0" encoding="UTF-8" standalone="no"?>
<!-- Created with Inkscape (http://www.inkscape.org/) -->

<svg
   width="6.3499594mm"
   height="3.7041345mm"
   viewBox="0 0 6.3499594 3.7041345"
   version="1.1"
   id="svg1"
   xml:space="preserve"
   xmlns="http://www.w3.org/2000/svg"
   xmlns:svg="http://www.w3.org/2000/svg"><defs
     id="defs1" /><g
     id="layer1"
     transform="translate(-101.27842,-146.64791)"><g
       style="fill:none;stroke:currentColor;stroke-width:2;stroke-linecap:round;stroke-linejoin:round"
       id="g2"
       transform="matrix(0.26458333,0,0,0.26458333,101.27839,145.325)"><path
         style="color:#000000;fill:#000000;stroke:none;stroke-linecap:butt;stroke-linejoin:miter;-inkscape-stroke:none"
         d="M 22.292969,5.2929687 13.5,14.085938 9.2070313,9.7929688 a 1.0001,1.0001 0 0 0 -1.4140626,0 L 0.29296875,17.292969 a 1,1 0 0 0 0,1.414062 1,1 0 0 0 1.41406245,0 L 8.5,11.914063 l 4.292969,4.292968 a 1.0001,1.0001 0 0 0 1.414062,0 l 9.5,-9.4999998 a 1,1 0 0 0 0,-1.4140625 1,1 0 0 0 -1.414062,0 z"
         id="polyline1-9" /><path
         style="color:#000000;fill:#000000;stroke:none;stroke-linecap:butt;stroke-linejoin:miter;-inkscape-stroke:none"
         d="m 17,5 a 1,1 0 0 0 -1,1 1,1 0 0 0 1,1 h 5 v 5 a 1,1 0 0 0 1,1 1,1 0 0 0 1,-1 V 6 A 1.0001,1.0001 0 0 0 23,5 Z"
         id="polyline2-3" /></g></g></svg>
